<?xml version="1.0" encoding="UTF-8"?>
<svg xmlns="http://www.w3.org/2000/svg" version="1.1" viewBox="0 0 1920 1080">
  <defs>
    <style>
      .cls-1, .cls-2 {
        fill: none;
        stroke: #000;
        stroke-linecap: round;
        stroke-linejoin: round;
        stroke-width: 0px;
      }

      .cls-2 {
        stroke-dasharray: 1.4 .28 .28 .28;
      }
    </style>
  </defs>
  <!-- Generator: Adobe Illustrator 28.7.2, SVG Export Plug-In . SVG Version: 1.2.0 Build 154)  -->
  <g>
    <g id="SHEETMETAL_x5F_BEND_x5F_LINES_x5F_UP">
      <g id="LINE">
        <line class="cls-2" x1="848.13" y1="717.59" x2="848.13" y2="362.41"/>
      </g>
      <g id="LINE-2" data-name="LINE">
        <line class="cls-2" x1="1073.27" y1="717.99" x2="1192.78" y2="717.99"/>
      </g>
      <g id="LINE-3" data-name="LINE">
        <line class="cls-2" x1="728.22" y1="717.99" x2="847.73" y2="717.99"/>
      </g>
      <g id="LINE-4" data-name="LINE">
        <line class="cls-2" x1="847.73" y1="362.01" x2="728.22" y2="362.01"/>
      </g>
      <g id="LINE-5" data-name="LINE">
        <line class="cls-2" x1="1192.78" y1="362.01" x2="1073.27" y2="362.01"/>
      </g>
      <g id="LINE-6" data-name="LINE">
        <line class="cls-2" x1="727.82" y1="362.41" x2="727.82" y2="619.37"/>
      </g>
      <g id="LINE-7" data-name="LINE">
        <line class="cls-2" x1="727.82" y1="664.72" x2="727.82" y2="717.59"/>
      </g>
      <g id="LINE-8" data-name="LINE">
        <line class="cls-2" x1="1193.18" y1="717.59" x2="1193.18" y2="664.72"/>
      </g>
      <g id="LINE-9" data-name="LINE">
        <line class="cls-2" x1="1193.18" y1="619.37" x2="1193.18" y2="362.41"/>
      </g>
      <g id="LINE-10" data-name="LINE">
        <line class="cls-2" x1="848.53" y1="361.3" x2="1072.47" y2="361.3"/>
      </g>
      <g id="LINE-11" data-name="LINE">
        <line class="cls-2" x1="1072.47" y1="718.7" x2="848.53" y2="718.7"/>
      </g>
      <g id="LINE-12" data-name="LINE">
        <line class="cls-2" x1="1072.47" y1="240.08" x2="848.53" y2="240.08"/>
      </g>
      <g id="LINE-13" data-name="LINE">
        <line class="cls-2" x1="1072.87" y1="362.41" x2="1072.87" y2="717.59"/>
      </g>
      <g id="LINE-14" data-name="LINE">
        <line class="cls-2" x1="1072.47" y1="839.92" x2="848.53" y2="839.92"/>
      </g>
    </g>
    <g id="VISIBLE">
      <g id="LINE-15" data-name="LINE">
        <line class="cls-1" x1="1193.58" y1="619.37" x2="1194.15" y2="619.37"/>
      </g>
      <g id="LINE-16" data-name="LINE">
        <line class="cls-1" x1="1214.84" y1="598.68" x2="1194.15" y2="619.37"/>
      </g>
      <g id="LINE-17" data-name="LINE">
        <line class="cls-1" x1="1214.84" y1="362.25" x2="1214.84" y2="598.68"/>
      </g>
      <g id="LINE-18" data-name="LINE">
        <line class="cls-1" x1="1194.15" y1="362.25" x2="1214.84" y2="362.25"/>
      </g>
      <g id="LINE-19" data-name="LINE">
        <line class="cls-1" x1="1194.15" y1="362.25" x2="1194.15" y2="362.18"/>
      </g>
      <g id="LINE-20" data-name="LINE">
        <line class="cls-1" x1="1193.58" y1="362.18" x2="1194.15" y2="362.18"/>
      </g>
      <g id="LINE-21" data-name="LINE">
        <line class="cls-1" x1="1193.58" y1="362.41" x2="1193.58" y2="362.18"/>
      </g>
      <g id="LINE-22" data-name="LINE">
        <line class="cls-1" x1="1193.01" y1="718.39" x2="1193.01" y2="718.96"/>
      </g>
      <g id="LINE-23" data-name="LINE">
        <line class="cls-1" x1="1192.78" y1="718.39" x2="1193.01" y2="718.39"/>
      </g>
      <g id="LINE-24" data-name="LINE">
        <line class="cls-1" x1="1073.27" y1="718.39" x2="1073.27" y2="718.96"/>
      </g>
      <g id="LINE-25" data-name="LINE">
        <line class="cls-1" x1="1093.96" y1="739.65" x2="1073.27" y2="718.96"/>
      </g>
      <g id="LINE-26" data-name="LINE">
        <line class="cls-1" x1="1172.71" y1="739.65" x2="1093.96" y2="739.65"/>
      </g>
      <g id="LINE-27" data-name="LINE">
        <line class="cls-1" x1="1193.01" y1="719.36" x2="1172.71" y2="739.65"/>
      </g>
      <g id="LINE-28" data-name="LINE">
        <line class="cls-1" x1="1193.01" y1="718.96" x2="1193.01" y2="719.36"/>
      </g>
      <g id="LINE-29" data-name="LINE">
        <line class="cls-1" x1="1072.47" y1="362.41" x2="1073.27" y2="362.41"/>
      </g>
      <g id="LINE-30" data-name="LINE">
        <line class="cls-1" x1="1073.27" y1="717.59" x2="1072.47" y2="717.59"/>
      </g>
      <g id="LINE-31" data-name="LINE">
        <line class="cls-1" x1="848.53" y1="717.59" x2="847.73" y2="717.59"/>
      </g>
      <g id="LINE-32" data-name="LINE">
        <line class="cls-1" x1="847.73" y1="362.41" x2="848.53" y2="362.41"/>
      </g>
      <g id="LINE-33" data-name="LINE">
        <line class="cls-1" x1="1193.58" y1="717.59" x2="1192.78" y2="717.59"/>
      </g>
      <g id="LINE-34" data-name="LINE">
        <line class="cls-1" x1="1192.78" y1="664.72" x2="1193.58" y2="664.72"/>
      </g>
      <g id="LINE-35" data-name="LINE">
        <line class="cls-1" x1="1005.85" y1="412.44" x2="1005.85" y2="435.12"/>
      </g>
      <g id="LINE-36" data-name="LINE">
        <line class="cls-1" x1="1072.47" y1="360.9" x2="1072.47" y2="361.7"/>
      </g>
      <g id="LINE-37" data-name="LINE">
        <line class="cls-1" x1="848.53" y1="361.7" x2="848.53" y2="360.9"/>
      </g>
      <g id="LINE-38" data-name="LINE">
        <line class="cls-1" x1="1193.01" y1="361.04" x2="1193.01" y2="360.64"/>
      </g>
      <g id="LINE-39" data-name="LINE">
        <line class="cls-1" x1="1193.01" y1="360.64" x2="1172.71" y2="340.35"/>
      </g>
      <g id="LINE-40" data-name="LINE">
        <line class="cls-1" x1="1172.71" y1="340.35" x2="1093.96" y2="340.35"/>
      </g>
      <g id="LINE-41" data-name="LINE">
        <line class="cls-1" x1="1093.96" y1="340.35" x2="1073.27" y2="361.04"/>
      </g>
      <g id="LINE-42" data-name="LINE">
        <line class="cls-1" x1="1073.27" y1="361.04" x2="1073.27" y2="361.61"/>
      </g>
      <g id="LINE-43" data-name="LINE">
        <line class="cls-1" x1="1193.01" y1="361.61" x2="1192.78" y2="361.61"/>
      </g>
      <g id="LINE-44" data-name="LINE">
        <line class="cls-1" x1="1193.01" y1="361.61" x2="1193.01" y2="361.04"/>
      </g>
      <g id="LINE-45" data-name="LINE">
        <line class="cls-1" x1="1193.58" y1="717.82" x2="1194.15" y2="717.82"/>
      </g>
      <g id="LINE-46" data-name="LINE">
        <line class="cls-1" x1="1194.15" y1="717.82" x2="1214.84" y2="717.82"/>
      </g>
      <g id="LINE-47" data-name="LINE">
        <line class="cls-1" x1="1214.84" y1="717.82" x2="1214.84" y2="685.42"/>
      </g>
      <g id="LINE-48" data-name="LINE">
        <line class="cls-1" x1="1214.84" y1="685.42" x2="1194.15" y2="664.72"/>
      </g>
      <g id="LINE-49" data-name="LINE">
        <line class="cls-1" x1="1194.15" y1="664.72" x2="1193.58" y2="664.72"/>
      </g>
      <g id="LINE-50" data-name="LINE">
        <line class="cls-1" x1="1193.58" y1="717.82" x2="1193.58" y2="717.59"/>
      </g>
      <g id="LINE-51" data-name="LINE">
        <line class="cls-1" x1="848.53" y1="840.32" x2="848.53" y2="840.88"/>
      </g>
      <g id="LINE-52" data-name="LINE">
        <line class="cls-1" x1="869.22" y1="861.58" x2="848.53" y2="840.88"/>
      </g>
      <g id="LINE-53" data-name="LINE">
        <line class="cls-1" x1="1051.78" y1="861.58" x2="869.22" y2="861.58"/>
      </g>
      <g id="LINE-54" data-name="LINE">
        <line class="cls-1" x1="1072.47" y1="840.88" x2="1051.78" y2="861.58"/>
      </g>
      <g id="LINE-55" data-name="LINE">
        <line class="cls-1" x1="1072.47" y1="840.88" x2="1072.47" y2="840.32"/>
      </g>
      <g id="LINE-56" data-name="LINE">
        <line class="cls-1" x1="848.53" y1="840.32" x2="848.53" y2="839.52"/>
      </g>
      <g id="LINE-57" data-name="LINE">
        <line class="cls-1" x1="1072.47" y1="839.52" x2="1072.47" y2="840.32"/>
      </g>
      <g id="LINE-58" data-name="LINE">
        <line class="cls-1" x1="1192.78" y1="717.59" x2="1192.78" y2="718.39"/>
      </g>
      <g id="LINE-59" data-name="LINE">
        <line class="cls-1" x1="1073.27" y1="718.39" x2="1073.27" y2="717.59"/>
      </g>
      <g id="LINE-60" data-name="LINE">
        <line class="cls-1" x1="848.53" y1="240.48" x2="848.53" y2="239.68"/>
      </g>
      <g id="LINE-61" data-name="LINE">
        <line class="cls-1" x1="1072.47" y1="239.68" x2="1072.47" y2="240.48"/>
      </g>
      <g id="LINE-62" data-name="LINE">
        <line class="cls-1" x1="1073.27" y1="362.41" x2="1073.27" y2="361.61"/>
      </g>
      <g id="LINE-63" data-name="LINE">
        <line class="cls-1" x1="1192.78" y1="361.61" x2="1192.78" y2="362.41"/>
      </g>
      <g id="LINE-64" data-name="LINE">
        <line class="cls-1" x1="727.42" y1="362.41" x2="728.22" y2="362.41"/>
      </g>
      <g id="LINE-65" data-name="LINE">
        <line class="cls-1" x1="728.22" y1="619.37" x2="727.42" y2="619.37"/>
      </g>
      <g id="LINE-66" data-name="LINE">
        <line class="cls-1" x1="727.42" y1="362.18" x2="726.85" y2="362.18"/>
      </g>
      <g id="LINE-67" data-name="LINE">
        <line class="cls-1" x1="726.85" y1="362.18" x2="726.85" y2="362.25"/>
      </g>
      <g id="LINE-68" data-name="LINE">
        <line class="cls-1" x1="726.85" y1="362.25" x2="706.16" y2="362.25"/>
      </g>
      <g id="LINE-69" data-name="LINE">
        <line class="cls-1" x1="706.16" y1="362.25" x2="706.16" y2="598.68"/>
      </g>
      <g id="LINE-70" data-name="LINE">
        <line class="cls-1" x1="706.16" y1="598.68" x2="726.85" y2="619.37"/>
      </g>
      <g id="LINE-71" data-name="LINE">
        <line class="cls-1" x1="726.85" y1="619.37" x2="727.42" y2="619.37"/>
      </g>
      <g id="LINE-72" data-name="LINE">
        <line class="cls-1" x1="727.42" y1="362.18" x2="727.42" y2="362.41"/>
      </g>
      <g id="LINE-73" data-name="LINE">
        <line class="cls-1" x1="728.22" y1="362.41" x2="728.22" y2="361.61"/>
      </g>
      <g id="LINE-74" data-name="LINE">
        <line class="cls-1" x1="847.73" y1="361.61" x2="847.73" y2="362.41"/>
      </g>
      <g id="LINE-75" data-name="LINE">
        <line class="cls-1" x1="727.99" y1="361.61" x2="727.99" y2="361.04"/>
      </g>
      <g id="LINE-76" data-name="LINE">
        <line class="cls-1" x1="728.22" y1="361.61" x2="727.99" y2="361.61"/>
      </g>
      <g id="LINE-77" data-name="LINE">
        <line class="cls-1" x1="847.73" y1="361.61" x2="847.73" y2="361.04"/>
      </g>
      <g id="LINE-78" data-name="LINE">
        <line class="cls-1" x1="827.04" y1="340.35" x2="847.73" y2="361.04"/>
      </g>
      <g id="LINE-79" data-name="LINE">
        <line class="cls-1" x1="748.29" y1="340.35" x2="827.04" y2="340.35"/>
      </g>
      <g id="LINE-80" data-name="LINE">
        <line class="cls-1" x1="727.99" y1="360.64" x2="748.29" y2="340.35"/>
      </g>
      <g id="LINE-81" data-name="LINE">
        <line class="cls-1" x1="727.99" y1="361.04" x2="727.99" y2="360.64"/>
      </g>
      <g id="LINE-82" data-name="LINE">
        <line class="cls-1" x1="847.73" y1="717.59" x2="847.73" y2="718.39"/>
      </g>
      <g id="LINE-83" data-name="LINE">
        <line class="cls-1" x1="728.22" y1="718.39" x2="728.22" y2="717.59"/>
      </g>
      <g id="LINE-84" data-name="LINE">
        <line class="cls-1" x1="727.99" y1="718.96" x2="727.99" y2="719.36"/>
      </g>
      <g id="LINE-85" data-name="LINE">
        <line class="cls-1" x1="727.99" y1="719.36" x2="748.29" y2="739.65"/>
      </g>
      <g id="LINE-86" data-name="LINE">
        <line class="cls-1" x1="748.29" y1="739.65" x2="827.04" y2="739.65"/>
      </g>
      <g id="LINE-87" data-name="LINE">
        <line class="cls-1" x1="827.04" y1="739.65" x2="847.73" y2="718.96"/>
      </g>
      <g id="LINE-88" data-name="LINE">
        <line class="cls-1" x1="847.73" y1="718.96" x2="847.73" y2="718.39"/>
      </g>
      <g id="LINE-89" data-name="LINE">
        <line class="cls-1" x1="727.99" y1="718.39" x2="728.22" y2="718.39"/>
      </g>
      <g id="LINE-90" data-name="LINE">
        <line class="cls-1" x1="727.99" y1="718.39" x2="727.99" y2="718.96"/>
      </g>
      <g id="LINE-91" data-name="LINE">
        <line class="cls-1" x1="727.42" y1="664.72" x2="726.85" y2="664.72"/>
      </g>
      <g id="LINE-92" data-name="LINE">
        <line class="cls-1" x1="706.16" y1="685.42" x2="726.85" y2="664.72"/>
      </g>
      <g id="LINE-93" data-name="LINE">
        <line class="cls-1" x1="706.16" y1="717.82" x2="706.16" y2="685.42"/>
      </g>
      <g id="LINE-94" data-name="LINE">
        <line class="cls-1" x1="726.85" y1="717.82" x2="706.16" y2="717.82"/>
      </g>
      <g id="LINE-95" data-name="LINE">
        <line class="cls-1" x1="727.42" y1="717.82" x2="726.85" y2="717.82"/>
      </g>
      <g id="LINE-96" data-name="LINE">
        <line class="cls-1" x1="727.42" y1="717.59" x2="727.42" y2="717.82"/>
      </g>
      <g id="LINE-97" data-name="LINE">
        <line class="cls-1" x1="727.42" y1="664.72" x2="728.22" y2="664.72"/>
      </g>
      <g id="LINE-98" data-name="LINE">
        <line class="cls-1" x1="728.22" y1="717.59" x2="727.42" y2="717.59"/>
      </g>
      <g id="LINE-99" data-name="LINE">
        <line class="cls-1" x1="1026.26" y1="314.64" x2="1026.26" y2="323.14"/>
      </g>
      <g id="CIRCLE">
        <circle class="cls-1" cx="795.35" cy="380.62" r="8.5"/>
      </g>
      <g id="LINE-100" data-name="LINE">
        <line class="cls-1" x1="1072.47" y1="719.1" x2="1072.47" y2="839.52"/>
      </g>
      <g id="LINE-101" data-name="LINE">
        <line class="cls-1" x1="848.53" y1="719.1" x2="848.53" y2="839.52"/>
      </g>
      <g id="LINE-102" data-name="LINE">
        <line class="cls-1" x1="1193.58" y1="619.37" x2="1192.78" y2="619.37"/>
      </g>
      <g id="LINE-103" data-name="LINE">
        <line class="cls-1" x1="1192.78" y1="362.41" x2="1193.58" y2="362.41"/>
      </g>
      <g id="ARC">
        <path class="cls-1" d="M1029.1,311.8c-1.57,0-2.83,1.27-2.83,2.83"/>
      </g>
      <g id="LINE-104" data-name="LINE">
        <line class="cls-1" x1="1029.1" y1="311.8" x2="1037.6" y2="311.8"/>
      </g>
      <g id="ARC-2" data-name="ARC">
        <path class="cls-1" d="M1011.52,406.77c-3.13,0-5.67,2.54-5.67,5.67"/>
      </g>
      <g id="LINE-105" data-name="LINE">
        <line class="cls-1" x1="1011.52" y1="406.77" x2="1034.2" y2="406.77"/>
      </g>
      <g id="LINE-106" data-name="LINE">
        <line class="cls-1" x1="1072.47" y1="718.3" x2="1072.47" y2="719.1"/>
      </g>
      <g id="LINE-107" data-name="LINE">
        <line class="cls-1" x1="848.53" y1="719.1" x2="848.53" y2="718.3"/>
      </g>
      <g id="ARC-3" data-name="ARC">
        <path class="cls-1" d="M1040.44,314.64c0-1.57-1.27-2.83-2.83-2.83"/>
      </g>
      <g id="LINE-108" data-name="LINE">
        <line class="cls-1" x1="1040.44" y1="314.64" x2="1040.44" y2="323.14"/>
      </g>
      <g id="ARC-4" data-name="ARC">
        <path class="cls-1" d="M1037.6,325.98c1.57,0,2.83-1.27,2.83-2.83"/>
      </g>
      <g id="LINE-109" data-name="LINE">
        <line class="cls-1" x1="1029.1" y1="325.98" x2="1037.6" y2="325.98"/>
      </g>
      <g id="ARC-5" data-name="ARC">
        <path class="cls-1" d="M1026.26,323.14c0,1.57,1.27,2.83,2.83,2.83"/>
      </g>
      <g id="LINE-110" data-name="LINE">
        <line class="cls-1" x1="895.3" y1="316.11" x2="872.63" y2="316.11"/>
      </g>
      <g id="ARC-6" data-name="ARC">
        <path class="cls-1" d="M898.14,318.95c0-1.57-1.27-2.83-2.83-2.83"/>
      </g>
      <g id="LINE-111" data-name="LINE">
        <line class="cls-1" x1="898.14" y1="318.95" x2="898.14" y2="327.45"/>
      </g>
      <g id="ARC-7" data-name="ARC">
        <path class="cls-1" d="M895.3,330.29c1.57,0,2.83-1.27,2.83-2.83"/>
      </g>
      <g id="LINE-112" data-name="LINE">
        <line class="cls-1" x1="895.3" y1="330.29" x2="872.63" y2="330.29"/>
      </g>
      <g id="ARC-8" data-name="ARC">
        <path class="cls-1" d="M869.79,327.45c0,1.57,1.27,2.83,2.83,2.83"/>
      </g>
      <g id="LINE-113" data-name="LINE">
        <line class="cls-1" x1="869.79" y1="318.95" x2="869.79" y2="327.45"/>
      </g>
      <g id="ARC-9" data-name="ARC">
        <path class="cls-1" d="M872.63,316.11c-1.57,0-2.83,1.27-2.83,2.83"/>
      </g>
      <g id="LINE-114" data-name="LINE">
        <line class="cls-1" x1="848.53" y1="360.9" x2="848.53" y2="240.48"/>
      </g>
      <g id="LINE-115" data-name="LINE">
        <line class="cls-1" x1="1072.47" y1="360.9" x2="1072.47" y2="240.48"/>
      </g>
      <g id="CIRCLE-2" data-name="CIRCLE">
        <circle class="cls-1" cx="795.35" cy="403.3" r="8.5"/>
      </g>
      <g id="CIRCLE-3" data-name="CIRCLE">
        <circle class="cls-1" cx="795.35" cy="494.01" r="8.5"/>
      </g>
      <g id="CIRCLE-4" data-name="CIRCLE">
        <circle class="cls-1" cx="795.35" cy="516.69" r="8.5"/>
      </g>
      <g id="CIRCLE-5" data-name="CIRCLE">
        <circle class="cls-1" cx="795.35" cy="562.04" r="8.5"/>
      </g>
      <g id="CIRCLE-6" data-name="CIRCLE">
        <circle class="cls-1" cx="795.35" cy="584.72" r="8.5"/>
      </g>
      <g id="LINE-116" data-name="LINE">
        <line class="cls-1" x1="752.83" y1="664.72" x2="728.22" y2="664.72"/>
      </g>
      <g id="LINE-117" data-name="LINE">
        <line class="cls-1" x1="752.83" y1="619.37" x2="728.22" y2="619.37"/>
      </g>
      <g id="ARC-10" data-name="ARC">
        <path class="cls-1" d="M752.83,664.72c12.52,0,22.68-10.15,22.68-22.68s-10.15-22.68-22.68-22.68"/>
      </g>
      <g id="CIRCLE-7" data-name="CIRCLE">
        <circle class="cls-1" cx="1125.65" cy="380.62" r="8.5"/>
      </g>
      <g id="LINE-118" data-name="LINE">
        <line class="cls-1" x1="1072.47" y1="239.68" x2="1072.47" y2="239.12"/>
      </g>
      <g id="ARC-11" data-name="ARC">
        <path class="cls-1" d="M1039.87,412.44c0-3.13-2.54-5.67-5.67-5.67"/>
      </g>
      <g id="LINE-119" data-name="LINE">
        <line class="cls-1" x1="1039.87" y1="412.44" x2="1039.87" y2="435.12"/>
      </g>
      <g id="ARC-12" data-name="ARC">
        <path class="cls-1" d="M1034.2,440.79c3.13,0,5.67-2.54,5.67-5.67"/>
      </g>
      <g id="LINE-120" data-name="LINE">
        <line class="cls-1" x1="1011.52" y1="440.79" x2="1034.2" y2="440.79"/>
      </g>
      <g id="ARC-13" data-name="ARC">
        <path class="cls-1" d="M1005.85,435.12c0,3.13,2.54,5.67,5.67,5.67"/>
      </g>
      <g id="LINE-121" data-name="LINE">
        <line class="cls-1" x1="943.49" y1="542.83" x2="943.49" y2="565.51"/>
      </g>
      <g id="ARC-14" data-name="ARC">
        <path class="cls-1" d="M949.16,537.17c-3.13,0-5.67,2.54-5.67,5.67"/>
      </g>
      <g id="LINE-122" data-name="LINE">
        <line class="cls-1" x1="949.16" y1="537.17" x2="971.84" y2="537.17"/>
      </g>
      <g id="ARC-15" data-name="ARC">
        <path class="cls-1" d="M977.51,542.83c0-3.13-2.54-5.67-5.67-5.67"/>
      </g>
      <g id="LINE-123" data-name="LINE">
        <line class="cls-1" x1="977.51" y1="542.83" x2="977.51" y2="565.51"/>
      </g>
      <g id="ARC-16" data-name="ARC">
        <path class="cls-1" d="M971.84,571.18c3.13,0,5.67-2.54,5.67-5.67"/>
      </g>
      <g id="LINE-124" data-name="LINE">
        <line class="cls-1" x1="949.16" y1="571.18" x2="971.84" y2="571.18"/>
      </g>
      <g id="ARC-17" data-name="ARC">
        <path class="cls-1" d="M943.49,565.51c0,3.13,2.54,5.67,5.67,5.67"/>
      </g>
      <g id="LINE-125" data-name="LINE">
        <line class="cls-1" x1="866.6" y1="511.65" x2="866.6" y2="568.35"/>
      </g>
      <g id="LINE-126" data-name="LINE">
        <line class="cls-1" x1="866.6" y1="568.35" x2="856.68" y2="568.35"/>
      </g>
      <g id="LINE-127" data-name="LINE">
        <line class="cls-1" x1="856.68" y1="511.65" x2="856.68" y2="568.35"/>
      </g>
      <g id="LINE-128" data-name="LINE">
        <line class="cls-1" x1="866.6" y1="511.65" x2="856.68" y2="511.65"/>
      </g>
      <g id="LINE-129" data-name="LINE">
        <line class="cls-1" x1="943.49" y1="460.63" x2="943.49" y2="483.31"/>
      </g>
      <g id="ARC-18" data-name="ARC">
        <path class="cls-1" d="M949.16,454.96c-3.13,0-5.67,2.54-5.67,5.67"/>
      </g>
      <g id="LINE-130" data-name="LINE">
        <line class="cls-1" x1="949.16" y1="454.96" x2="971.84" y2="454.96"/>
      </g>
      <g id="LINE-131" data-name="LINE">
        <line class="cls-1" x1="1072.47" y1="239.12" x2="1051.78" y2="218.42"/>
      </g>
      <g id="LINE-132" data-name="LINE">
        <line class="cls-1" x1="1051.78" y1="218.42" x2="869.22" y2="218.42"/>
      </g>
      <g id="LINE-133" data-name="LINE">
        <line class="cls-1" x1="869.22" y1="218.42" x2="848.53" y2="239.12"/>
      </g>
      <g id="LINE-134" data-name="LINE">
        <line class="cls-1" x1="848.53" y1="239.12" x2="848.53" y2="239.68"/>
      </g>
      <g id="ARC-19" data-name="ARC">
        <path class="cls-1" d="M977.51,460.63c0-3.13-2.54-5.67-5.67-5.67"/>
      </g>
      <g id="LINE-135" data-name="LINE">
        <line class="cls-1" x1="977.51" y1="460.63" x2="977.51" y2="483.31"/>
      </g>
      <g id="ARC-20" data-name="ARC">
        <path class="cls-1" d="M971.84,488.98c3.13,0,5.67-2.54,5.67-5.67"/>
      </g>
      <g id="LINE-136" data-name="LINE">
        <line class="cls-1" x1="949.16" y1="488.98" x2="971.84" y2="488.98"/>
      </g>
      <g id="CIRCLE-8" data-name="CIRCLE">
        <circle class="cls-1" cx="1125.65" cy="403.3" r="8.5"/>
      </g>
      <g id="CIRCLE-9" data-name="CIRCLE">
        <circle class="cls-1" cx="1125.65" cy="494.01" r="8.5"/>
      </g>
      <g id="CIRCLE-10" data-name="CIRCLE">
        <circle class="cls-1" cx="1125.65" cy="516.69" r="8.5"/>
      </g>
      <g id="CIRCLE-11" data-name="CIRCLE">
        <circle class="cls-1" cx="1125.65" cy="562.04" r="8.5"/>
      </g>
      <g id="CIRCLE-12" data-name="CIRCLE">
        <circle class="cls-1" cx="1125.65" cy="584.72" r="8.5"/>
      </g>
      <g id="LINE-137" data-name="LINE">
        <line class="cls-1" x1="1192.78" y1="664.72" x2="1168.17" y2="664.72"/>
      </g>
      <g id="ARC-21" data-name="ARC">
        <path class="cls-1" d="M943.49,483.31c0,3.13,2.54,5.67,5.67,5.67"/>
      </g>
      <g id="LINE-138" data-name="LINE">
        <line class="cls-1" x1="990.26" y1="530.08" x2="1012.94" y2="530.08"/>
      </g>
      <g id="ARC-22" data-name="ARC">
        <path class="cls-1" d="M984.59,524.41c0,3.13,2.54,5.67,5.67,5.67"/>
      </g>
      <g id="LINE-139" data-name="LINE">
        <line class="cls-1" x1="984.59" y1="524.41" x2="984.59" y2="501.73"/>
      </g>
      <g id="ARC-23" data-name="ARC">
        <path class="cls-1" d="M990.26,496.06c-3.13,0-5.67,2.54-5.67,5.67"/>
      </g>
      <g id="LINE-140" data-name="LINE">
        <line class="cls-1" x1="990.26" y1="496.06" x2="1012.94" y2="496.06"/>
      </g>
      <g id="ARC-24" data-name="ARC">
        <path class="cls-1" d="M1018.61,501.73c0-3.13-2.54-5.67-5.67-5.67"/>
      </g>
      <g id="LINE-141" data-name="LINE">
        <line class="cls-1" x1="1018.61" y1="524.41" x2="1018.61" y2="501.73"/>
      </g>
      <g id="ARC-25" data-name="ARC">
        <path class="cls-1" d="M1012.94,530.08c3.13,0,5.67-2.54,5.67-5.67"/>
      </g>
      <g id="LINE-142" data-name="LINE">
        <line class="cls-1" x1="936.41" y1="524.41" x2="936.41" y2="501.73"/>
      </g>
      <g id="ARC-26" data-name="ARC">
        <path class="cls-1" d="M930.74,530.08c3.13,0,5.67-2.54,5.67-5.67"/>
      </g>
      <g id="LINE-143" data-name="LINE">
        <line class="cls-1" x1="930.74" y1="530.08" x2="908.06" y2="530.08"/>
      </g>
      <g id="ARC-27" data-name="ARC">
        <path class="cls-1" d="M902.39,524.41c0,3.13,2.54,5.67,5.67,5.67"/>
      </g>
      <g id="LINE-144" data-name="LINE">
        <line class="cls-1" x1="902.39" y1="524.41" x2="902.39" y2="501.73"/>
      </g>
      <g id="ARC-28" data-name="ARC">
        <path class="cls-1" d="M908.06,496.06c-3.13,0-5.67,2.54-5.67,5.67"/>
      </g>
      <g id="LINE-145" data-name="LINE">
        <line class="cls-1" x1="930.74" y1="496.06" x2="908.06" y2="496.06"/>
      </g>
      <g id="ARC-29" data-name="ARC">
        <path class="cls-1" d="M936.41,501.73c0-3.13-2.54-5.67-5.67-5.67"/>
      </g>
      <g id="LINE-146" data-name="LINE">
        <line class="cls-1" x1="915.15" y1="435.12" x2="915.15" y2="412.44"/>
      </g>
      <g id="ARC-30" data-name="ARC">
        <path class="cls-1" d="M909.48,440.79c3.13,0,5.67-2.54,5.67-5.67"/>
      </g>
      <g id="LINE-147" data-name="LINE">
        <line class="cls-1" x1="909.48" y1="440.79" x2="886.8" y2="440.79"/>
      </g>
      <g id="ARC-31" data-name="ARC">
        <path class="cls-1" d="M881.13,435.12c0,3.13,2.54,5.67,5.67,5.67"/>
      </g>
      <g id="LINE-148" data-name="LINE">
        <line class="cls-1" x1="881.13" y1="435.12" x2="881.13" y2="412.44"/>
      </g>
      <g id="ARC-32" data-name="ARC">
        <path class="cls-1" d="M886.8,406.77c-3.13,0-5.67,2.54-5.67,5.67"/>
      </g>
      <g id="LINE-149" data-name="LINE">
        <line class="cls-1" x1="909.48" y1="406.77" x2="886.8" y2="406.77"/>
      </g>
      <g id="ARC-33" data-name="ARC">
        <path class="cls-1" d="M915.15,412.44c0-3.13-2.54-5.67-5.67-5.67"/>
      </g>
      <g id="LINE-150" data-name="LINE">
        <line class="cls-1" x1="1054.4" y1="364.25" x2="1064.32" y2="364.25"/>
      </g>
      <g id="LINE-151" data-name="LINE">
        <line class="cls-1" x1="1064.32" y1="364.25" x2="1064.32" y2="420.94"/>
      </g>
      <g id="LINE-152" data-name="LINE">
        <line class="cls-1" x1="1054.4" y1="420.94" x2="1064.32" y2="420.94"/>
      </g>
      <g id="LINE-153" data-name="LINE">
        <line class="cls-1" x1="1054.4" y1="364.25" x2="1054.4" y2="420.94"/>
      </g>
      <g id="LINE-154" data-name="LINE">
        <line class="cls-1" x1="1054.4" y1="511.65" x2="1064.32" y2="511.65"/>
      </g>
      <g id="LINE-155" data-name="LINE">
        <line class="cls-1" x1="1064.32" y1="511.65" x2="1064.32" y2="568.35"/>
      </g>
      <g id="LINE-156" data-name="LINE">
        <line class="cls-1" x1="1054.4" y1="568.35" x2="1064.32" y2="568.35"/>
      </g>
      <g id="LINE-157" data-name="LINE">
        <line class="cls-1" x1="1054.4" y1="511.65" x2="1054.4" y2="568.35"/>
      </g>
      <g id="LINE-158" data-name="LINE">
        <line class="cls-1" x1="866.6" y1="364.25" x2="866.6" y2="420.94"/>
      </g>
      <g id="LINE-159" data-name="LINE">
        <line class="cls-1" x1="866.6" y1="420.94" x2="856.68" y2="420.94"/>
      </g>
      <g id="LINE-160" data-name="LINE">
        <line class="cls-1" x1="856.68" y1="364.25" x2="856.68" y2="420.94"/>
      </g>
      <g id="LINE-161" data-name="LINE">
        <line class="cls-1" x1="866.6" y1="364.25" x2="856.68" y2="364.25"/>
      </g>
      <g id="LINE-162" data-name="LINE">
        <line class="cls-1" x1="977.51" y1="435.12" x2="977.51" y2="412.44"/>
      </g>
      <g id="ARC-34" data-name="ARC">
        <path class="cls-1" d="M971.84,440.79c3.13,0,5.67-2.54,5.67-5.67"/>
      </g>
      <g id="LINE-163" data-name="LINE">
        <line class="cls-1" x1="971.84" y1="440.79" x2="949.16" y2="440.79"/>
      </g>
      <g id="ARC-35" data-name="ARC">
        <path class="cls-1" d="M943.49,435.12c0,3.13,2.54,5.67,5.67,5.67"/>
      </g>
      <g id="LINE-164" data-name="LINE">
        <line class="cls-1" x1="943.49" y1="435.12" x2="943.49" y2="412.44"/>
      </g>
      <g id="ARC-36" data-name="ARC">
        <path class="cls-1" d="M949.16,406.77c-3.13,0-5.67,2.54-5.67,5.67"/>
      </g>
      <g id="LINE-165" data-name="LINE">
        <line class="cls-1" x1="971.84" y1="406.77" x2="949.16" y2="406.77"/>
      </g>
      <g id="ARC-37" data-name="ARC">
        <path class="cls-1" d="M977.51,412.44c0-3.13-2.54-5.67-5.67-5.67"/>
      </g>
      <g id="LINE-166" data-name="LINE">
        <line class="cls-1" x1="848.53" y1="361.7" x2="848.53" y2="362.41"/>
      </g>
      <g id="LINE-167" data-name="LINE">
        <line class="cls-1" x1="848.53" y1="717.59" x2="848.53" y2="718.3"/>
      </g>
      <g id="LINE-168" data-name="LINE">
        <line class="cls-1" x1="1072.47" y1="717.59" x2="1072.47" y2="718.3"/>
      </g>
      <g id="LINE-169" data-name="LINE">
        <line class="cls-1" x1="1072.47" y1="361.7" x2="1072.47" y2="362.41"/>
      </g>
      <g id="LINE-170" data-name="LINE">
        <line class="cls-1" x1="892.47" y1="638.65" x2="892.47" y2="661.32"/>
      </g>
      <g id="ARC-38" data-name="ARC">
        <path class="cls-1" d="M1168.17,619.37c-12.52,0-22.68,10.15-22.68,22.68s10.15,22.68,22.68,22.68"/>
      </g>
      <g id="LINE-171" data-name="LINE">
        <line class="cls-1" x1="1192.78" y1="619.37" x2="1168.17" y2="619.37"/>
      </g>
      <g id="ARC-39" data-name="ARC">
        <path class="cls-1" d="M915.15,615.97c-12.52,0-22.68,10.15-22.68,22.68"/>
      </g>
      <g id="LINE-172" data-name="LINE">
        <line class="cls-1" x1="915.15" y1="615.97" x2="1005.85" y2="615.97"/>
      </g>
      <g id="ARC-40" data-name="ARC">
        <path class="cls-1" d="M1028.53,638.65c0-12.52-10.15-22.68-22.68-22.68"/>
      </g>
      <g id="LINE-173" data-name="LINE">
        <line class="cls-1" x1="1028.53" y1="638.65" x2="1028.53" y2="661.32"/>
      </g>
      <g id="ARC-41" data-name="ARC">
        <path class="cls-1" d="M1005.85,684c12.52,0,22.68-10.15,22.68-22.68"/>
      </g>
      <g id="LINE-174" data-name="LINE">
        <line class="cls-1" x1="1005.85" y1="684" x2="915.15" y2="684"/>
      </g>
      <g id="ARC-42" data-name="ARC">
        <path class="cls-1" d="M892.47,661.32c0,12.52,10.15,22.68,22.68,22.68"/>
      </g>
    </g>
    <g id="SHEETMETAL_x5F_BEND_x5F_TANGENT_x5F_LI">
      <g id="LINE-175" data-name="LINE">
        <line class="cls-1" x1="847.73" y1="362.41" x2="847.73" y2="717.59"/>
      </g>
      <g id="LINE-176" data-name="LINE">
        <line class="cls-1" x1="1072.47" y1="360.9" x2="848.53" y2="360.9"/>
      </g>
      <g id="LINE-177" data-name="LINE">
        <line class="cls-1" x1="1073.27" y1="361.61" x2="1192.78" y2="361.61"/>
      </g>
      <g id="LINE-178" data-name="LINE">
        <line class="cls-1" x1="1193.58" y1="664.72" x2="1193.58" y2="717.59"/>
      </g>
      <g id="LINE-179" data-name="LINE">
        <line class="cls-1" x1="1072.47" y1="840.32" x2="848.53" y2="840.32"/>
      </g>
      <g id="LINE-180" data-name="LINE">
        <line class="cls-1" x1="1072.47" y1="839.52" x2="848.53" y2="839.52"/>
      </g>
      <g id="LINE-181" data-name="LINE">
        <line class="cls-1" x1="1073.27" y1="718.39" x2="1192.78" y2="718.39"/>
      </g>
      <g id="LINE-182" data-name="LINE">
        <line class="cls-1" x1="1072.47" y1="239.68" x2="848.53" y2="239.68"/>
      </g>
      <g id="LINE-183" data-name="LINE">
        <line class="cls-1" x1="727.42" y1="619.37" x2="727.42" y2="362.41"/>
      </g>
      <g id="LINE-184" data-name="LINE">
        <line class="cls-1" x1="847.73" y1="361.61" x2="728.22" y2="361.61"/>
      </g>
      <g id="LINE-185" data-name="LINE">
        <line class="cls-1" x1="847.73" y1="718.39" x2="728.22" y2="718.39"/>
      </g>
      <g id="LINE-186" data-name="LINE">
        <line class="cls-1" x1="727.42" y1="664.72" x2="727.42" y2="717.59"/>
      </g>
      <g id="LINE-187" data-name="LINE">
        <line class="cls-1" x1="1072.47" y1="719.1" x2="848.53" y2="719.1"/>
      </g>
      <g id="LINE-188" data-name="LINE">
        <line class="cls-1" x1="1193.58" y1="619.37" x2="1193.58" y2="362.41"/>
      </g>
      <g id="LINE-189" data-name="LINE">
        <line class="cls-1" x1="1072.47" y1="718.3" x2="848.53" y2="718.3"/>
      </g>
      <g id="LINE-190" data-name="LINE">
        <line class="cls-1" x1="1072.47" y1="240.48" x2="848.53" y2="240.48"/>
      </g>
      <g id="LINE-191" data-name="LINE">
        <line class="cls-1" x1="728.22" y1="664.72" x2="728.22" y2="717.59"/>
      </g>
      <g id="LINE-192" data-name="LINE">
        <line class="cls-1" x1="728.22" y1="717.59" x2="847.73" y2="717.59"/>
      </g>
      <g id="LINE-193" data-name="LINE">
        <line class="cls-1" x1="847.73" y1="362.41" x2="728.22" y2="362.41"/>
      </g>
      <g id="LINE-194" data-name="LINE">
        <line class="cls-1" x1="728.22" y1="362.41" x2="728.22" y2="619.37"/>
      </g>
      <g id="LINE-195" data-name="LINE">
        <line class="cls-1" x1="1072.47" y1="361.7" x2="848.53" y2="361.7"/>
      </g>
      <g id="LINE-196" data-name="LINE">
        <line class="cls-1" x1="848.53" y1="362.41" x2="848.53" y2="717.59"/>
      </g>
      <g id="LINE-197" data-name="LINE">
        <line class="cls-1" x1="1072.47" y1="717.59" x2="1072.47" y2="362.41"/>
      </g>
      <g id="LINE-198" data-name="LINE">
        <line class="cls-1" x1="1192.78" y1="619.37" x2="1192.78" y2="362.41"/>
      </g>
      <g id="LINE-199" data-name="LINE">
        <line class="cls-1" x1="1192.78" y1="362.41" x2="1073.27" y2="362.41"/>
      </g>
      <g id="LINE-200" data-name="LINE">
        <line class="cls-1" x1="1073.27" y1="362.41" x2="1073.27" y2="717.59"/>
      </g>
      <g id="LINE-201" data-name="LINE">
        <line class="cls-1" x1="1073.27" y1="717.59" x2="1192.78" y2="717.59"/>
      </g>
      <g id="LINE-202" data-name="LINE">
        <line class="cls-1" x1="1192.78" y1="717.59" x2="1192.78" y2="664.72"/>
      </g>
    </g>
  </g>
</svg>